<svg width="39" height="42" viewBox="0 0 39 42" fill="none" xmlns="http://www.w3.org/2000/svg">
<path d="M28.328 27.2836C29.5525 26.6285 30.9541 26.2555 32.4468 26.2555H32.4519C32.6037 26.2555 32.6745 26.0741 32.5632 25.9733C31.0109 24.5859 29.2376 23.4652 27.3161 22.6574C27.2958 22.6473 27.2756 22.6423 27.2553 22.6322C30.3975 20.3594 32.4417 16.6655 32.4417 12.4978C32.4417 5.59379 26.8354 0 19.9185 0C13.0016 0 7.40028 5.59379 7.40028 12.4978C7.40028 16.6655 9.44448 20.3594 12.5917 22.6322C12.5715 22.6423 12.5513 22.6473 12.531 22.6574C10.2692 23.6098 8.24023 24.9755 6.49456 26.7192C4.75897 28.4446 3.37722 30.49 2.4264 32.7413C1.49089 34.9459 0.986003 37.3079 0.938786 39.7008C0.937436 39.7546 0.946908 39.8081 0.966645 39.8582C0.986382 39.9083 1.01598 39.9539 1.05371 39.9924C1.09143 40.0309 1.13651 40.0615 1.1863 40.0824C1.23608 40.1033 1.28956 40.1141 1.34358 40.114H4.37446C4.59204 40.114 4.77419 39.9377 4.77925 39.721C4.88045 35.8305 6.44396 32.187 9.21173 29.4254C12.0706 26.568 15.8756 24.9957 19.9235 24.9957C22.7925 24.9957 25.5451 25.7869 27.9182 27.2685C27.9792 27.3066 28.0491 27.3281 28.1211 27.3308C28.193 27.3334 28.2644 27.3171 28.328 27.2836ZM19.9235 21.1657C17.6061 21.1657 15.4253 20.2636 13.7808 18.6258C12.9717 17.8221 12.3303 16.8668 11.8935 15.8151C11.4567 14.7634 11.2331 13.636 11.2357 12.4978C11.2357 10.1847 12.1414 8.00769 13.7808 6.36987C15.4202 4.73204 17.601 3.82998 19.9235 3.82998C22.246 3.82998 24.4218 4.73204 26.0663 6.36987C26.8754 7.17361 27.5168 8.12886 27.9536 9.18058C28.3904 10.2323 28.614 11.3597 28.6114 12.4978C28.6114 14.8109 27.7057 16.988 26.0663 18.6258C24.4218 20.2636 22.241 21.1657 19.9235 21.1657ZM38.5339 33.1596H34.2835V28.9265C34.2835 28.7047 34.1014 28.5233 33.8788 28.5233H31.0452C30.8226 28.5233 30.6404 28.7047 30.6404 28.9265V33.1596H26.3901C26.1675 33.1596 25.9853 33.341 25.9853 33.5627V36.3848C25.9853 36.6066 26.1675 36.788 26.3901 36.788H30.6404V41.0211C30.6404 41.2429 30.8226 41.4243 31.0452 41.4243H33.8788C34.1014 41.4243 34.2835 41.2429 34.2835 41.0211V36.788H38.5339C38.7565 36.788 38.9387 36.6066 38.9387 36.3848V33.5627C38.9387 33.341 38.7565 33.1596 38.5339 33.1596Z" fill="white"/>
</svg>
