<svg width="32" height="32" viewBox="0 0 32 32" fill="none" xmlns="http://www.w3.org/2000/svg">
<path d="M12.625 2H19.375C19.6734 2 19.9595 2.10536 20.1705 2.29289C20.3815 2.48043 20.5 2.73478 20.5 3V5H11.5V3C11.5 2.73478 11.6185 2.48043 11.8295 2.29289C12.0405 2.10536 12.3266 2 12.625 2ZM22.75 5V3C22.75 2.20435 22.3944 1.44129 21.7615 0.87868C21.1286 0.31607 20.2701 0 19.375 0L12.625 0C11.7299 0 10.8714 0.31607 10.2385 0.87868C9.60558 1.44129 9.25 2.20435 9.25 3V5H3.6385C3.631 4.99994 3.6235 4.99994 3.616 5H1.375C1.07663 5 0.790483 5.10536 0.579505 5.29289C0.368526 5.48043 0.25 5.73478 0.25 6C0.25 6.26522 0.368526 6.51957 0.579505 6.70711C0.790483 6.89464 1.07663 7 1.375 7H2.5855L4.50475 28.32C4.59526 29.3224 5.1072 30.2577 5.93862 30.9397C6.77004 31.6216 7.85994 32.0002 8.99125 32H23.0087C24.1401 32.0002 25.23 31.6216 26.0614 30.9397C26.8928 30.2577 27.4047 29.3224 27.4953 28.32L29.4145 7H30.625C30.9234 7 31.2095 6.89464 31.4205 6.70711C31.6315 6.51957 31.75 6.26522 31.75 6C31.75 5.73478 31.6315 5.48043 31.4205 5.29289C31.2095 5.10536 30.9234 5 30.625 5H28.3862C28.3787 4.99994 28.3713 4.99994 28.3638 5H22.75ZM27.1555 7L25.252 28.16C25.2067 28.6612 24.9508 29.1289 24.5351 29.4698C24.1194 29.8108 23.5744 30.0001 23.0087 30H8.99125C8.42559 30.0001 7.88065 29.8108 7.46493 29.4698C7.04922 29.1289 6.79325 28.6612 6.748 28.16L4.8445 7H27.1555ZM10.3098 9C10.6075 8.9847 10.8999 9.07513 11.1227 9.25139C11.3454 9.42766 11.4804 9.67534 11.4978 9.94L12.6228 26.94C12.6346 27.2016 12.5305 27.4568 12.333 27.6509C12.1354 27.8451 11.8601 27.9626 11.5662 27.9783C11.2722 27.994 10.983 27.9067 10.7607 27.735C10.5385 27.5633 10.4008 27.3209 10.3772 27.06L9.25 10.06C9.24086 9.92863 9.261 9.79694 9.30924 9.6725C9.35749 9.54806 9.4329 9.4333 9.53115 9.33482C9.62939 9.23634 9.74855 9.15607 9.88177 9.09862C10.015 9.04116 10.1597 9.00765 10.3075 9H10.3098ZM21.6903 9C21.8381 9.00765 21.9828 9.04116 22.116 9.09862C22.2492 9.15607 22.3684 9.23634 22.4666 9.33482C22.5649 9.4333 22.6403 9.54806 22.6885 9.6725C22.7368 9.79694 22.7569 9.92863 22.7477 10.06L21.6227 27.06C21.6167 27.1929 21.581 27.3234 21.5175 27.4438C21.4541 27.5643 21.3643 27.6723 21.2533 27.7615C21.1424 27.8507 21.0125 27.9194 20.8713 27.9634C20.7301 28.0075 20.5805 28.026 20.4311 28.0181C20.2818 28.0101 20.1357 27.9757 20.0015 27.9169C19.8673 27.8582 19.7476 27.7762 19.6495 27.6758C19.5513 27.5754 19.4767 27.4586 19.43 27.3323C19.3832 27.2059 19.3653 27.0726 19.3773 26.94L20.5023 9.94C20.5196 9.67534 20.6546 9.42766 20.8773 9.25139C21.1001 9.07513 21.3925 8.9847 21.6903 9ZM16 9C16.2984 9 16.5845 9.10536 16.7955 9.29289C17.0065 9.48043 17.125 9.73478 17.125 10V27C17.125 27.2652 17.0065 27.5196 16.7955 27.7071C16.5845 27.8946 16.2984 28 16 28C15.7016 28 15.4155 27.8946 15.2045 27.7071C14.9935 27.5196 14.875 27.2652 14.875 27V10C14.875 9.73478 14.9935 9.48043 15.2045 9.29289C15.4155 9.10536 15.7016 9 16 9Z" fill="white"/>
</svg>
