<svg width="61" height="55" viewBox="0 0 61 55" fill="none" xmlns="http://www.w3.org/2000/svg">
<path d="M25.3224 19.2746C25.3224 24.1977 27.1524 28.9192 30.4098 32.4003C33.6672 35.8815 38.0852 37.8371 42.6918 37.8371C47.2985 37.8371 51.7165 35.8815 54.9739 32.4003C58.2313 28.9192 60.0613 24.1977 60.0613 19.2746C60.0613 14.3516 58.2313 9.63012 54.9739 6.14897C51.7165 2.66783 47.2985 0.712143 42.6918 0.712143C38.0852 0.712143 33.6672 2.66783 30.4098 6.14897C27.1524 9.63012 25.3224 14.3516 25.3224 19.2746ZM52.1661 7.46214C52.5849 7.46214 52.9865 7.63993 53.2826 7.9564C53.5788 8.27287 53.7451 8.70209 53.7451 9.14964V15.8996C53.7451 16.3472 53.5788 16.7764 53.2826 17.0929C52.9865 17.4094 52.5849 17.5871 52.1661 17.5871H45.8499C45.4311 17.5871 45.0295 17.4094 44.7334 17.0929C44.4372 16.7764 44.2709 16.3472 44.2709 15.8996C44.2709 15.4521 44.4372 15.0229 44.7334 14.7064C45.0295 14.3899 45.4311 14.2121 45.8499 14.2121H49.008C48.2733 13.1635 47.3198 12.3124 46.2234 11.7265C45.1269 11.1406 43.9177 10.8361 42.6918 10.8371C40.0612 10.8371 37.7273 12.2108 36.2904 14.3336C36.0411 14.685 35.673 14.9182 35.2648 14.9832C34.8567 15.0481 34.441 14.9398 34.1066 14.6813C33.7723 14.4228 33.5459 14.0347 33.476 13.6001C33.406 13.1655 33.4981 12.7189 33.7324 12.3559C34.7562 10.84 36.1024 9.60571 37.6601 8.75487C39.2178 7.90403 40.9425 7.46095 42.6918 7.46214C45.7868 7.46214 48.5817 8.82227 50.587 11.0059V9.14964C50.587 8.70209 50.7534 8.27287 51.0495 7.9564C51.3457 7.63993 51.7473 7.46214 52.1661 7.46214ZM34.7966 27.5434V29.3996C34.7966 29.8472 34.6303 30.2764 34.3342 30.5929C34.038 30.9094 33.6364 31.0871 33.2176 31.0871C32.7988 31.0871 32.3972 30.9094 32.1011 30.5929C31.8049 30.2764 31.6386 29.8472 31.6386 29.3996V22.6496C31.6386 22.2021 31.8049 21.7729 32.1011 21.4564C32.3972 21.1399 32.7988 20.9621 33.2176 20.9621H39.5338C39.9526 20.9621 40.3542 21.1399 40.6503 21.4564C40.9464 21.7729 41.1128 22.2021 41.1128 22.6496C41.1128 23.0972 40.9464 23.5264 40.6503 23.8429C40.3542 24.1594 39.9526 24.3371 39.5338 24.3371H36.3757C37.8158 26.3891 40.1117 27.7121 42.6918 27.7121C45.1109 27.7121 47.2774 26.5511 48.7269 24.7151C48.8594 24.5416 49.0229 24.398 49.2079 24.2927C49.3929 24.1874 49.5956 24.1225 49.8043 24.1018C50.013 24.0811 50.2234 24.105 50.4234 24.1721C50.6234 24.2392 50.8088 24.3481 50.969 24.4926C51.1291 24.6371 51.2607 24.8142 51.3562 25.0136C51.4516 25.213 51.5089 25.4307 51.5248 25.6541C51.5407 25.8774 51.5148 26.1019 51.4487 26.3144C51.3826 26.527 51.2776 26.7233 51.1397 26.892C50.1031 28.2075 48.8098 29.2646 47.3505 29.9893C45.8911 30.714 44.3011 31.0887 42.6918 31.0871C41.2212 31.0893 39.765 30.7768 38.409 30.1682C37.0531 29.5596 35.8249 28.6671 34.7966 27.5434ZM12.6901 37.8371H31.7459C29.1909 36.1116 27.0218 33.8073 25.3919 31.0871H12.6901L12.3206 31.1108C11.5213 31.2124 10.7885 31.6363 10.2718 32.296C9.75521 32.9556 9.49378 33.8012 9.54095 34.6599C9.58812 35.5187 9.94034 36.3258 10.5256 36.9163C11.111 37.5068 11.8852 37.8362 12.6901 37.8371ZM3.21586 14.2121H22.7138C22.2258 16.4217 22.0607 18.6986 22.2243 20.9621H3.21586C2.41093 20.9612 1.63672 20.6318 1.05141 20.0413C0.466105 19.4508 0.113884 18.6437 0.0667113 17.7849C0.0195387 16.9262 0.280976 16.0806 0.797607 15.421C1.31424 14.7613 2.04707 14.3374 2.84636 14.2358L3.21586 14.2121ZM18.6368 47.9858L19.0063 47.9621H31.6386C32.4435 47.9631 33.2177 48.2925 33.803 48.883C34.3883 49.4735 34.7405 50.2806 34.7877 51.1394C34.8349 51.9981 34.5735 52.8437 34.0568 53.5033C33.5402 54.163 32.8074 54.5869 32.0081 54.6885L31.6386 54.7121H19.0063C18.2013 54.7112 17.4271 54.3818 16.8418 53.7913C16.2565 53.2008 15.9043 52.3937 15.8571 51.5349C15.8099 50.6762 16.0714 49.8306 16.588 49.171C17.1046 48.5113 17.8375 48.0874 18.6368 47.9858Z" fill="white"/>
</svg>
