<svg width="22" height="26" viewBox="0 0 22 26" fill="none" xmlns="http://www.w3.org/2000/svg">
<path fill-rule="evenodd" clip-rule="evenodd" d="M0.836226 1.08626C0.923337 0.998959 1.02678 0.929687 1.14067 0.882426C1.25456 0.835165 1.37667 0.810837 1.5 0.810837C1.62334 0.810837 1.74539 0.835165 1.85934 0.882426C1.97323 0.929687 2.07667 0.998959 2.16373 1.08626L13.4137 12.3363C13.5011 12.4233 13.5703 12.5268 13.6176 12.6407C13.6648 12.7546 13.6892 12.8767 13.6892 13C13.6892 13.1233 13.6648 13.2454 13.6176 13.3593C13.5703 13.4732 13.5011 13.5767 13.4137 13.6638L2.16373 24.9138C1.98773 25.0898 1.74895 25.1887 1.5 25.1887C1.25106 25.1887 1.01228 25.0898 0.836226 24.9138C0.660226 24.7377 0.561337 24.4989 0.561337 24.25C0.561337 24.0011 0.660226 23.7623 0.836226 23.5863L11.4244 13L0.836226 2.41376C0.748948 2.32668 0.67967 2.22322 0.632393 2.10933C0.58517 1.99543 0.560837 1.87333 0.560837 1.75001C0.560837 1.6267 0.58517 1.5046 0.632393 1.3907C0.67967 1.2768 0.748948 1.17335 0.836226 1.08626Z" fill="white"/>
<path fill-rule="evenodd" clip-rule="evenodd" d="M8.33623 1.08626C8.42334 0.998959 8.52678 0.929687 8.64067 0.882426C8.75456 0.835165 8.87667 0.810837 9 0.810837C9.12334 0.810837 9.24539 0.835165 9.35934 0.882426C9.47323 0.929687 9.57667 0.998959 9.66373 1.08626L20.9137 12.3363C21.0011 12.4233 21.0703 12.5268 21.1176 12.6407C21.1648 12.7546 21.1892 12.8767 21.1892 13C21.1892 13.1233 21.1648 13.2454 21.1176 13.3593C21.0703 13.4732 21.0011 13.5767 20.9137 13.6638L9.66373 24.9138C9.48773 25.0898 9.24895 25.1887 9 25.1887C8.75106 25.1887 8.51228 25.0898 8.33623 24.9138C8.16023 24.7377 8.06134 24.4989 8.06134 24.25C8.06134 24.0011 8.16023 23.7623 8.33623 23.5863L18.9244 13L8.33623 2.41376C8.24895 2.32668 8.17967 2.22322 8.13239 2.10933C8.08517 1.99543 8.06084 1.87333 8.06084 1.75001C8.06084 1.6267 8.08517 1.5046 8.13239 1.3907C8.17967 1.2768 8.24895 1.17335 8.33623 1.08626Z" fill="white"/>
</svg>
