<svg width="35" height="34" viewBox="0 0 35 34" fill="none" xmlns="http://www.w3.org/2000/svg">
<path d="M24.7917 11.5071V10.1122C24.7917 6.2664 21.5207 3.13757 17.5 3.13757C13.4794 3.13757 10.2084 6.2664 10.2084 10.1122V14.297H8.75004C7.1415 14.297 5.83337 15.5482 5.83337 17.0868V28.2463C5.83337 29.7849 7.1415 31.0361 8.75004 31.0361H26.25C27.8586 31.0361 29.1667 29.7849 29.1667 28.2463V17.0868C29.1667 15.5482 27.8586 14.297 26.25 14.297H13.125V10.1122C13.125 7.805 15.088 5.92743 17.5 5.92743C19.9121 5.92743 21.875 7.805 21.875 10.1122V11.5071H24.7917Z" fill="white"/>
</svg>
