<svg width="40" height="40" viewBox="0 0 40 40" fill="none" xmlns="http://www.w3.org/2000/svg">
<path d="M22.0421 3.7757H17.0421V10.0257H22.0421V3.7757ZM20.8561 8.83963H18.2282V4.96176H20.8561V8.83963Z" fill="white"/>
<path d="M25.625 29.4007H13.125C12.7795 29.4007 12.5 29.6802 12.5 30.0257C12.5 30.3711 12.7795 30.6507 13.125 30.6507H25.625C25.9704 30.6507 26.25 30.3711 26.25 30.0257C26.25 29.6802 25.9704 29.4007 25.625 29.4007Z" fill="white"/>
<path d="M25.625 24.4007H13.125C12.7795 24.4007 12.5 24.6802 12.5 25.0257C12.5 25.3711 12.7795 25.6507 13.125 25.6507H25.625C25.9704 25.6507 26.25 25.3711 26.25 25.0257C26.25 24.6802 25.9704 24.4007 25.625 24.4007Z" fill="white"/>
<path d="M7.5 35.0257H31.25V18.7757H7.5V35.0257ZM8.75 20.0257H30V33.7757H8.75V20.0257Z" fill="white"/>
<path d="M30.8632 0.0256875L30.8507 0H4.375C2.99425 0 1.875 1.11931 1.875 2.5V37.5C1.875 38.8808 2.99425 40 4.375 40H35.625C37.0057 40 38.125 38.8808 38.125 37.5V7.31019L30.8632 0.0256875ZM24.9753 1.30031V12.501H8.77463V1.30031H24.9753ZM36.875 37.5C36.875 38.1892 36.3142 38.75 35.625 38.75H4.375C3.68575 38.75 3.125 38.1892 3.125 37.5V2.5C3.125 1.81075 3.68575 1.25 4.375 1.25H7.5V13.7757H26.25V1.25H30.3187L36.875 7.82681V37.5Z" fill="white"/>
</svg>
