<svg width="30" height="35" viewBox="0 0 38 42" fill="none" xmlns="http://www.w3.org/2000/svg">
<path d="M27.8596 26.7788C30.1518 23.3575 31.1785 19.1158 30.7342 14.9021C30.2899 10.6885 28.4074 6.81367 25.4634 4.05295C22.5194 1.29223 18.7309 -0.150823 14.8559 0.0124909C10.981 0.175805 7.30525 1.93344 4.56417 4.93377C1.8231 7.93409 0.218816 11.9558 0.0722788 16.1944C-0.0742581 20.4329 1.24776 24.5757 3.77385 27.7939C6.29993 31.0121 9.84379 33.0683 13.6964 33.5513C17.5491 34.0342 21.4263 32.9082 24.5526 30.3986H24.5502C24.6212 30.5022 24.697 30.6006 24.7822 30.6964L33.8961 40.6651C34.34 41.151 34.9421 41.4241 35.5701 41.4243C36.198 41.4245 36.8004 41.1519 37.2446 40.6664C37.6888 40.1809 37.9384 39.5223 37.9386 38.8354C37.9389 38.1485 37.6896 37.4897 37.2457 37.0039L28.1318 27.0351C28.0472 26.9414 27.9562 26.8548 27.8596 26.7762V26.7788ZM28.4704 16.8256C28.4704 18.6957 28.1336 20.5476 27.4793 22.2754C26.825 24.0032 25.8659 25.5731 24.6569 26.8955C23.4479 28.2179 22.0126 29.2669 20.433 29.9826C18.8533 30.6983 17.1603 31.0666 15.4505 31.0666C13.7407 31.0666 12.0477 30.6983 10.468 29.9826C8.88838 29.2669 7.45308 28.2179 6.24408 26.8955C5.03507 25.5731 4.07604 24.0032 3.42173 22.2754C2.76742 20.5476 2.43065 18.6957 2.43065 16.8256C2.43065 13.0486 3.80238 9.42632 6.24408 6.7556C8.68577 4.08488 11.9974 2.58449 15.4505 2.58449C18.9036 2.58449 22.2152 4.08488 24.6569 6.7556C27.0986 9.42632 28.4704 13.0486 28.4704 16.8256Z" fill="#494949"/>
</svg>
