<svg width="31" height="40" viewBox="0 0 31 40" fill="none" xmlns="http://www.w3.org/2000/svg">
<path d="M30.75 35V11.25L19.2188 0H5.125C3.76577 0 2.4622 0.526784 1.50108 1.46447C0.539954 2.40215 0 3.67392 0 5V35C0 36.3261 0.539954 37.5979 1.50108 38.5355C2.4622 39.4732 3.76577 40 5.125 40H25.625C26.9842 40 28.2878 39.4732 29.2489 38.5355C30.21 37.5979 30.75 36.3261 30.75 35ZM19.2188 7.5C19.2188 8.49456 19.6237 9.44839 20.3446 10.1517C21.0654 10.8549 22.0431 11.25 23.0625 11.25H28.1875V22.5H2.5625V5C2.5625 4.33696 2.83248 3.70107 3.31304 3.23223C3.7936 2.76339 4.44538 2.5 5.125 2.5H19.2188V7.5ZM2.5625 30V25H7.6875V30H2.5625ZM2.5625 32.5H7.6875V37.5H5.125C4.44538 37.5 3.7936 37.2366 3.31304 36.7678C2.83248 36.2989 2.5625 35.663 2.5625 35V32.5ZM10.25 37.5V32.5H17.9375V37.5H10.25ZM20.5 37.5V32.5H28.1875V35C28.1875 35.663 27.9175 36.2989 27.437 36.7678C26.9564 37.2366 26.3046 37.5 25.625 37.5H20.5ZM28.1875 30H20.5V25H28.1875V30ZM10.25 30V25H17.9375V30H10.25Z" fill="black"/>
</svg>
