<svg width="35" height="34" viewBox="0 0 35 34" fill="none" xmlns="http://www.w3.org/2000/svg">
<g clip-path="url(#clip0_30_80)">
<path d="M35 27.8329C35 29.4167 34.4303 30.7753 33.291 31.9087C32.1517 33.0421 30.7799 33.6088 29.1758 33.6088H5.82422C4.22005 33.6088 2.84831 33.0421 1.70898 31.9087C0.569661 30.7753 0 29.4167 0 27.8329C0 26.5978 0.077474 25.4317 0.232422 24.3347C0.38737 23.2376 0.674479 22.1333 1.09375 21.0217C1.51302 19.9101 2.04622 18.9584 2.69336 18.1665C3.34049 17.3746 4.19727 16.728 5.26367 16.2266C6.33008 15.7253 7.55599 15.4747 8.94141 15.4747C11.3294 17.3346 14.1823 18.2646 17.5 18.2646C20.8177 18.2646 23.6706 17.3346 26.0586 15.4747C27.444 15.4747 28.6699 15.7253 29.7363 16.2266C30.8027 16.728 31.6595 17.3746 32.3066 18.1665C32.9538 18.9584 33.487 19.9101 33.9062 21.0217C34.3255 22.1333 34.6126 23.2376 34.7676 24.3347C34.9225 25.4317 35 26.5978 35 27.8329ZM28 8.50006C28 10.8104 26.9746 12.7829 24.9238 14.4176C22.873 16.0523 20.3984 16.8696 17.5 16.8696C14.6016 16.8696 12.127 16.0523 10.0762 14.4176C8.02539 12.7829 7 10.8104 7 8.50006C7 6.18971 8.02539 4.2172 10.0762 2.58251C12.127 0.947833 14.6016 0.130493 17.5 0.130493C20.3984 0.130493 22.873 0.947833 24.9238 2.58251C26.9746 4.2172 28 6.18971 28 8.50006Z" fill="white"/>
</g>
<defs>
<clipPath id="clip0_30_80">
<rect width="35" height="33.4783" fill="white" transform="translate(0 0.130493)"/>
</clipPath>
</defs>
</svg>
