<svg width="8" height="8" viewBox="0 0 8 8" fill="none" xmlns="http://www.w3.org/2000/svg">
<path d="M0.646008 0.645993C0.692454 0.59943 0.74763 0.562487 0.808375 0.537281C0.86912 0.512074 0.934241 0.4991 1.00001 0.4991C1.06578 0.4991 1.1309 0.512074 1.19164 0.537281C1.25239 0.562487 1.30756 0.59943 1.35401 0.645993L4.00001 3.29299L6.64601 0.645993C6.6925 0.599505 6.74769 0.562629 6.80842 0.53747C6.86916 0.512311 6.93426 0.499362 7.00001 0.499362C7.06575 0.499362 7.13085 0.512311 7.19159 0.53747C7.25233 0.562629 7.30752 0.599505 7.35401 0.645993C7.4005 0.692481 7.43737 0.74767 7.46253 0.80841C7.48769 0.869149 7.50064 0.934249 7.50064 0.999993C7.50064 1.06574 7.48769 1.13084 7.46253 1.19158C7.43737 1.25232 7.4005 1.30751 7.35401 1.35399L4.70701 3.99999L7.35401 6.64599C7.4005 6.69248 7.43737 6.74767 7.46253 6.80841C7.48769 6.86915 7.50064 6.93425 7.50064 6.99999C7.50064 7.06574 7.48769 7.13084 7.46253 7.19158C7.43737 7.25232 7.4005 7.30751 7.35401 7.35399C7.30752 7.40048 7.25233 7.43736 7.19159 7.46252C7.13085 7.48768 7.06575 7.50062 7.00001 7.50062C6.93426 7.50062 6.86916 7.48768 6.80842 7.46252C6.74769 7.43736 6.6925 7.40048 6.64601 7.35399L4.00001 4.70699L1.35401 7.35399C1.30752 7.40048 1.25233 7.43736 1.19159 7.46252C1.13085 7.48768 1.06575 7.50062 1.00001 7.50062C0.934265 7.50062 0.869164 7.48768 0.808425 7.46252C0.747686 7.43736 0.692496 7.40048 0.646008 7.35399C0.599521 7.30751 0.562644 7.25232 0.537485 7.19158C0.512326 7.13084 0.499377 7.06574 0.499377 6.99999C0.499377 6.93425 0.512326 6.86915 0.537485 6.80841C0.562644 6.74767 0.599521 6.69248 0.646008 6.64599L3.29301 3.99999L0.646008 1.35399C0.599445 1.30755 0.562502 1.25237 0.537296 1.19163C0.512089 1.13088 0.499115 1.06576 0.499115 0.999993C0.499115 0.934226 0.512089 0.869105 0.537296 0.80836C0.562502 0.747614 0.599445 0.692439 0.646008 0.645993Z" fill="#4AAE9B"/>
</svg>
